HIERARCHY
ROOT Hips
{
	OFFSET -3.958830 18.904000 13.208200
	CHANNELS 6 Xposition Yposition Zposition Zrotation Yrotation Xrotation 
	JOINT LHipJoint
	{
		OFFSET 0.000000 0.000000 0.000000
		CHANNELS 3 Zrotation Yrotation Xrotation
		JOINT LeftUpLeg
		{
			OFFSET 1.800000 -1.400000 0.085000
			CHANNELS 3 Zrotation Yrotation Xrotation
			JOINT LeftLeg
			{
				OFFSET 2.215000 -6.000000 0.000000
				CHANNELS 3 Zrotation Yrotation Xrotation
				JOINT LeftFoot
				{
					OFFSET 2.500000 -6.900000 0.000000
					CHANNELS 3 Zrotation Yrotation Xrotation
					JOINT LeftToeBase
					{
						OFFSET 0.200000 -0.500000 1.950000
						CHANNELS 3 Zrotation Yrotation Xrotation
						End Site
						{
							OFFSET 0.000000 0.000000 0.000000
						}
					}
				}
			}
		}
	}
	JOINT RHipJoint
	{
		OFFSET 0.000000 0.000000 0.000000
		CHANNELS 3 Zrotation Yrotation Xrotation
		JOINT RightUpLeg
		{
			OFFSET -1.800000 -1.400000 0.085000
			CHANNELS 3 Zrotation Yrotation Xrotation
			JOINT RightLeg
			{
				OFFSET -2.215000 -6.000000 0.000000
				CHANNELS 3 Zrotation Yrotation Xrotation
				JOINT RightFoot
				{
					OFFSET -2.500000 -6.900000 0.000000
					CHANNELS 3 Zrotation Yrotation Xrotation
					JOINT RightToeBase
					{
						OFFSET -0.200000 -0.500000 1.950000
						CHANNELS 3 Zrotation Yrotation Xrotation
						End Site
						{
							OFFSET 0.000000 0.000000 0.000000
						}
					}
				}
			}
		}
	}
	JOINT LowerBack
	{
		OFFSET 0.000000 0.000000 0.000000
		CHANNELS 3 Zrotation Yrotation Xrotation
		JOINT Spine
		{
			OFFSET -0.087000 1.940000 -0.288900
			CHANNELS 3 Zrotation Yrotation Xrotation
			JOINT Spine1
			{
				OFFSET 0.000000 1.950000 0.060000
				CHANNELS 3 Zrotation Yrotation Xrotation
				JOINT Neck
				{
					OFFSET 0.000000 0.000000 0.000000
					CHANNELS 3 Zrotation Yrotation Xrotation
					JOINT Neck1
					{
						OFFSET 0.000000 1.600000 0.340000
						CHANNELS 3 Zrotation Yrotation Xrotation
						JOINT Head
						{
							OFFSET 0.000000 1.667000 -0.240000
							CHANNELS 3 Zrotation Yrotation Xrotation
							End Site
							{
								OFFSET 0.000000 0.000000 0.000000
							}
						}
					}
				}
				JOINT LeftShoulder
				{
					OFFSET 0.000000 0.000000 0.000000
					CHANNELS 3 Zrotation Yrotation Xrotation
					JOINT LeftArm
					{
						OFFSET 2.700000 1.550000 -0.730000
						CHANNELS 3 Zrotation Yrotation Xrotation
						JOINT LeftForeArm
						{
							OFFSET 5.450000 0.000000 0.000000
							CHANNELS 3 Zrotation Yrotation Xrotation
							JOINT LeftHand
							{
								OFFSET 3.450000 0.000000 0.000000
								CHANNELS 3 Zrotation Yrotation Xrotation
								JOINT LeftHandIndex1
								{
									OFFSET 0.750000 0.000000 0.000000
									CHANNELS 3 Zrotation Yrotation Xrotation
									End Site
									{
										OFFSET 0.000000 0.000000 0.000000
									}
								}
							}
						}
					}
				}
				JOINT RightShoulder
				{
					OFFSET 0.000000 0.000000 0.000000
					CHANNELS 3 Zrotation Yrotation Xrotation
					JOINT RightArm
					{
						OFFSET -2.700000 1.550000 -0.730000
						CHANNELS 3 Zrotation Yrotation Xrotation
						JOINT RightForeArm
						{
							OFFSET -5.450000 0.000000 0.000000
							CHANNELS 3 Zrotation Yrotation Xrotation
							JOINT RightHand
							{
								OFFSET -3.450000 0.000000 0.000000
								CHANNELS 3 Zrotation Yrotation Xrotation
								JOINT RightHandIndex1
								{
									OFFSET -0.750000 0.000000 0.000000
									CHANNELS 3 Zrotation Yrotation Xrotation
									End Site
									{
										OFFSET 0.000000 0.000000 0.000000
									}
								}
							}
						}
					}
				}
			}
		}
	}
}
MOTION
Frames: 8
Frame Time: 0.016667
0.440350 16.560990 3.570060 -5.182855 25.066778 -10.204558 -15.199245 11.869694 1.684544 7.868997 -1.036173 -1.852215 -6.006712 4.505947 3.021817 -1.440463 5.056011 2.894067 0.837390 0.695970 0.544100 18.961267 -7.353767 5.615321 -14.087933 3.149408 -66.739631 2.681594 -32.575981 96.420568 -3.316806 -17.411750 -1.086494 0.946940 0.540580 0.250850 -4.529167 -3.987967 -8.588060 15.978016 -13.218515 16.876121 -8.251583 -9.367962 28.238758 -5.952872 3.383468 -13.134643 -0.020185 -3.540788 30.873162 -1.894900 -1.776290 -15.862620 -1.717596 -51.024257 -3.753900 6.801336 -26.999747 -21.787619 86.370625 -22.627703 -27.303818 -5.049456 2.371865 0.560180 0.443660 -0.135580 0.164130 11.088177 35.794600 14.719652 53.114260 9.924111 -8.876124 -5.707609 32.690748 -5.321951 1.226346 -1.575021 -0.545830 0.764900 0.156180 -0.323620 
0.423910 16.552230 3.619180 -5.275783 24.101604 -10.245586 -15.227693 11.997318 1.791753 8.702434 -1.130257 -0.252956 -5.930598 4.537782 2.156787 -1.380172 5.269183 2.843885 0.848780 0.700530 0.551450 18.914853 -7.454170 5.326687 -13.309850 2.377994 -65.076428 2.312835 -30.063268 92.614933 -3.070088 -16.615787 -0.946246 0.957490 0.566620 0.271860 -4.399064 -4.210970 -8.474374 15.468087 -13.232584 17.214650 -8.499757 -9.623593 28.218886 -6.235485 3.961334 -12.638600 1.020188 -3.856886 29.346201 -2.042630 -1.839250 -15.319330 -0.924751 -49.896556 -4.259387 7.995913 -27.566553 -21.717587 81.938891 -21.079991 -24.208996 -5.119219 2.427835 0.525440 0.475310 -0.155000 0.181280 10.628705 33.639849 14.607834 53.222787 7.465392 -12.495475 0.089730 41.767677 -5.233017 1.146235 -1.644015 -0.539760 0.754060 0.142920 -0.315390 
0.393680 16.527220 3.684190 -5.105328 23.092604 -9.936213 -15.289497 12.347493 1.862126 8.999551 -1.183965 0.017498 -4.961609 4.591081 3.026983 -1.339623 5.239318 2.841613 0.859200 0.731210 0.569530 18.802388 -7.657718 4.987234 -11.833282 1.559557 -63.141958 0.357519 -26.398236 88.892652 -2.776955 -15.576197 -0.759749 0.959280 0.525920 0.263820 -4.153397 -4.678859 -8.306449 14.280348 -13.118143 17.686450 -8.218763 -9.891678 26.782651 -6.342955 3.672435 -11.590505 0.689128 -4.253147 27.915616 -2.190320 -1.921050 -15.596670 -1.245731 -46.845680 -4.662252 5.072227 -30.689536 -20.378187 80.764328 -20.905901 -24.079391 -5.028176 2.413126 0.495570 0.452880 -0.139400 0.172160 11.092717 30.526707 14.056507 53.283815 4.850533 -14.383012 9.446134 48.091913 -2.751734 1.182438 -1.726861 -0.507660 0.722050 0.116740 -0.305770 
0.367140 16.486180 3.770780 -4.932054 20.840495 -8.991746 -15.314547 12.659879 1.922158 9.596912 -1.376326 -0.464790 -4.726331 4.807980 4.547431 -1.296266 5.284477 2.877460 0.752220 0.576180 0.466750 18.714848 -7.885184 4.723044 -10.155632 1.656455 -61.409849 -1.803167 -22.481253 84.740431 -2.438211 -14.490925 -0.473600 0.852760 0.591500 0.243100 -4.008227 -5.003762 -8.147974 14.141767 -12.766717 17.681271 -7.571439 -9.797721 23.439865 -6.333315 1.736748 -10.419096 -2.253679 -4.305717 27.099324 -1.812650 -2.827810 -14.295840 -4.395777 -41.831005 -3.985961 -0.727245 -36.018310 -16.841029 81.047228 -21.942631 -25.701803 -4.871370 2.352444 0.491440 0.461310 -0.208870 0.190870 14.438701 26.838158 13.430698 49.768702 1.107949 -13.784717 19.858405 49.164206 1.654673 1.239985 -1.764421 -0.541920 0.713620 0.151180 -0.287100 
0.342360 16.464840 3.865130 -4.164496 18.551474 -8.403240 -15.346818 13.095574 2.084555 9.617003 -1.399177 -0.653913 -4.829787 5.128511 6.260665 -1.250504 5.394313 2.879796 0.619910 0.397820 0.365030 18.580321 -8.254774 4.301379 -8.318541 1.252058 -57.788635 -3.665715 -18.370890 78.197248 -2.014644 -13.016689 -0.079670 0.734970 0.664530 0.224730 -3.810673 -5.360982 -8.014402 12.788272 -11.839433 17.469036 -6.590695 -9.317797 21.548676 -6.097463 0.667661 -9.926698 -4.294362 -3.849544 27.809194 -0.997850 -2.985600 -13.185810 -7.359163 -38.860172 -2.907762 -8.333048 -39.675190 -13.661987 81.975903 -25.457575 -29.410294 -4.783668 2.206616 0.511900 0.471330 -0.261750 0.188360 17.028239 24.816816 13.075753 47.944869 -0.953557 -13.208142 24.362913 47.805762 3.549013 1.286144 -1.717643 -0.592080 0.726490 0.210700 -0.277080 
0.313500 16.444030 3.965800 -3.338992 16.204465 -7.787224 -15.369037 13.496950 2.300267 9.473154 -1.384051 -0.745610 -5.154805 5.391294 7.305689 -1.175163 5.461368 2.881069 0.523800 0.276440 0.286400 18.448049 -8.658672 3.854702 -6.596407 0.740480 -53.734769 -5.122732 -14.676289 70.356316 -1.571062 -11.353550 0.391397 0.641380 0.698870 0.200640 -3.630130 -5.606477 -7.923284 11.457989 -10.698605 16.703171 -5.572808 -8.552658 20.722691 -5.720309 -0.027373 -10.135563 -5.958978 -3.394150 29.167941 -0.087190 -3.084740 -11.950130 -10.062540 -36.492834 -0.617273 -16.497852 -43.530297 -10.744903 82.430837 -29.394606 -33.817671 -4.701491 2.094035 0.512450 0.465210 -0.297600 0.186310 18.997456 23.456328 12.494504 47.597552 -1.824418 -12.805170 24.229515 45.452455 3.517302 1.332919 -1.671319 -0.610870 0.715590 0.241400 -0.263220 
0.273630 16.417350 4.072230 -2.049248 13.759726 -7.103987 -15.425491 13.882058 2.542985 8.964374 -1.273300 -0.788482 -5.608040 5.624645 8.039432 -1.050231 5.483802 2.895310 0.441220 0.178730 0.219340 18.281430 -9.017679 3.462495 -5.912865 0.097633 -49.568335 -5.789810 -11.835625 62.097520 -1.148195 -9.678973 0.907509 0.542850 0.715460 0.185270 -3.337979 -5.837158 -7.909313 9.070295 -9.137955 15.928326 -4.128570 -7.340539 20.424975 -5.200280 -0.145242 -10.898314 -6.627805 -2.818472 30.944710 0.975690 -2.813600 -10.206030 -12.295170 -33.009286 2.807727 -24.015255 -48.455104 -7.055940 80.651947 -32.857125 -37.207245 -4.643892 2.130674 0.488200 0.457600 -0.322860 0.187760 20.318101 21.605719 11.180558 48.497796 -1.577485 -12.428638 22.171633 43.017850 2.864435 1.407045 -1.631733 -0.596530 0.672270 0.248170 -0.239740 
0.250850 16.374640 4.168050 -1.527565 11.988021 -6.064964 -15.435882 14.065234 2.698872 8.995316 -1.274873 -0.716346 -6.089443 5.742840 7.841926 -0.917481 5.503218 2.923796 0.391010 0.124040 0.160240 18.212545 -9.275038 3.136601 -5.597125 -0.581430 -46.782361 -5.653988 -9.988609 53.956564 -0.775331 -8.137340 1.410742 0.474960 0.746820 0.192000 -3.234539 -5.835756 -7.810362 8.729467 -8.591338 14.356105 -3.885703 -6.934658 20.432669 -4.386466 -0.430848 -11.739566 -7.201627 -2.355563 31.686550 1.467780 -2.760190 -7.850360 -12.866206 -28.635351 6.186997 -32.872356 -54.006953 -0.975996 76.406070 -35.609345 -38.583364 -4.607952 2.302538 0.427690 0.475000 -0.351710 0.214970 19.422376 19.022538 8.980028 51.216506 0.417861 -11.392053 19.387974 40.157659 2.054537 1.513282 -1.610362 -0.563050 0.619520 0.230140 -0.197950 
